<mxfile host="app.diagrams.net" agent="Mozilla/5.0 (Windows NT 10.0; Win64; x64) AppleWebKit/537.36 (KHTML, like Gecko) Chrome/129.0.0.0 Safari/537.36" version="24.7.14">
  <diagram name="Страница — 1" id="UGy9VywpturO60eiFtOs">
    <mxGraphModel dx="1915" dy="1012" grid="1" gridSize="10" guides="1" tooltips="1" connect="1" arrows="1" fold="1" page="1" pageScale="1" pageWidth="827" pageHeight="1169" math="0" shadow="0">
      <root>
        <mxCell id="0" />
        <mxCell id="1" parent="0" />
        <mxCell id="4wo9BDWE1BoHJSRFEesV-1" value="Процесс заказа карты онлайн" style="swimlane;html=1;childLayout=stackLayout;resizeParent=1;resizeParentMax=0;startSize=20;whiteSpace=wrap;" vertex="1" parent="1">
          <mxGeometry x="118" y="140" width="640" height="1000" as="geometry">
            <mxRectangle x="230" y="10" width="60" height="30" as="alternateBounds" />
          </mxGeometry>
        </mxCell>
        <mxCell id="4wo9BDWE1BoHJSRFEesV-2" value="Пользователь" style="swimlane;html=1;startSize=20;fontSize=8;" vertex="1" parent="4wo9BDWE1BoHJSRFEesV-1">
          <mxGeometry y="20" width="410" height="980" as="geometry" />
        </mxCell>
        <mxCell id="4wo9BDWE1BoHJSRFEesV-19" style="edgeStyle=orthogonalEdgeStyle;rounded=0;orthogonalLoop=1;jettySize=auto;html=1;exitX=0.5;exitY=0.667;exitDx=0;exitDy=0;entryX=0.5;entryY=0;entryDx=0;entryDy=0;exitPerimeter=0;" edge="1" parent="4wo9BDWE1BoHJSRFEesV-2" source="4wo9BDWE1BoHJSRFEesV-7" target="4wo9BDWE1BoHJSRFEesV-17">
          <mxGeometry relative="1" as="geometry" />
        </mxCell>
        <mxCell id="4wo9BDWE1BoHJSRFEesV-7" value="" style="ellipse;html=1;shape=startState;fillColor=#000000;strokeColor=#ff0000;" vertex="1" parent="4wo9BDWE1BoHJSRFEesV-2">
          <mxGeometry x="160" y="80" width="30" height="30" as="geometry" />
        </mxCell>
        <mxCell id="4wo9BDWE1BoHJSRFEesV-12" value="Пользователь запустил приложение банка и находится на главной странице&amp;nbsp;&lt;div&gt;&lt;br&gt;&lt;/div&gt;" style="text;html=1;align=center;verticalAlign=middle;whiteSpace=wrap;rounded=0;" vertex="1" parent="4wo9BDWE1BoHJSRFEesV-2">
          <mxGeometry x="55" y="50" width="240" height="30" as="geometry" />
        </mxCell>
        <mxCell id="4wo9BDWE1BoHJSRFEesV-17" value="Открыть главное меню" style="rounded=1;whiteSpace=wrap;html=1;arcSize=40;fontColor=#000000;fillColor=#ffffc0;strokeColor=#ff0000;fontSize=8;" vertex="1" parent="4wo9BDWE1BoHJSRFEesV-2">
          <mxGeometry x="115" y="130" width="120" height="40" as="geometry" />
        </mxCell>
        <mxCell id="4wo9BDWE1BoHJSRFEesV-31" value="" style="shape=line;html=1;strokeWidth=6;strokeColor=#ff0000;" vertex="1" parent="4wo9BDWE1BoHJSRFEesV-2">
          <mxGeometry x="142" y="200" width="125" height="10" as="geometry" />
        </mxCell>
        <mxCell id="4wo9BDWE1BoHJSRFEesV-35" style="edgeStyle=orthogonalEdgeStyle;rounded=0;orthogonalLoop=1;jettySize=auto;html=1;exitX=0.5;exitY=1;exitDx=0;exitDy=0;entryX=0.25;entryY=0.5;entryDx=0;entryDy=0;entryPerimeter=0;" edge="1" parent="4wo9BDWE1BoHJSRFEesV-2" source="4wo9BDWE1BoHJSRFEesV-17" target="4wo9BDWE1BoHJSRFEesV-31">
          <mxGeometry relative="1" as="geometry" />
        </mxCell>
        <mxCell id="4wo9BDWE1BoHJSRFEesV-46" style="edgeStyle=orthogonalEdgeStyle;rounded=0;orthogonalLoop=1;jettySize=auto;html=1;exitX=0.5;exitY=1;exitDx=0;exitDy=0;entryX=0.5;entryY=0;entryDx=0;entryDy=0;" edge="1" parent="4wo9BDWE1BoHJSRFEesV-2" source="4wo9BDWE1BoHJSRFEesV-39" target="4wo9BDWE1BoHJSRFEesV-43">
          <mxGeometry relative="1" as="geometry" />
        </mxCell>
        <mxCell id="4wo9BDWE1BoHJSRFEesV-39" value="Выбрать тип карты" style="rounded=1;whiteSpace=wrap;html=1;arcSize=50;fontColor=#000000;fillColor=#ffffc0;strokeColor=#ff0000;fontSize=8;" vertex="1" parent="4wo9BDWE1BoHJSRFEesV-2">
          <mxGeometry x="144.5" y="430" width="120" height="40" as="geometry" />
        </mxCell>
        <mxCell id="4wo9BDWE1BoHJSRFEesV-50" style="edgeStyle=orthogonalEdgeStyle;rounded=0;orthogonalLoop=1;jettySize=auto;html=1;exitX=0;exitY=0.5;exitDx=0;exitDy=0;entryX=0.5;entryY=0;entryDx=0;entryDy=0;" edge="1" parent="4wo9BDWE1BoHJSRFEesV-2" source="4wo9BDWE1BoHJSRFEesV-43" target="4wo9BDWE1BoHJSRFEesV-51">
          <mxGeometry relative="1" as="geometry">
            <mxPoint x="52" y="580" as="targetPoint" />
          </mxGeometry>
        </mxCell>
        <mxCell id="4wo9BDWE1BoHJSRFEesV-56" value="Физический&lt;div&gt;пластик&lt;/div&gt;" style="edgeLabel;html=1;align=center;verticalAlign=middle;resizable=0;points=[];" vertex="1" connectable="0" parent="4wo9BDWE1BoHJSRFEesV-50">
          <mxGeometry x="-0.5135" relative="1" as="geometry">
            <mxPoint x="-10" y="-20" as="offset" />
          </mxGeometry>
        </mxCell>
        <mxCell id="4wo9BDWE1BoHJSRFEesV-54" style="edgeStyle=orthogonalEdgeStyle;rounded=0;orthogonalLoop=1;jettySize=auto;html=1;exitX=1;exitY=0.5;exitDx=0;exitDy=0;entryX=1;entryY=0.5;entryDx=0;entryDy=0;" edge="1" parent="4wo9BDWE1BoHJSRFEesV-2" source="4wo9BDWE1BoHJSRFEesV-43" target="4wo9BDWE1BoHJSRFEesV-48">
          <mxGeometry relative="1" as="geometry">
            <Array as="points">
              <mxPoint x="352" y="510" />
              <mxPoint x="352" y="610" />
            </Array>
          </mxGeometry>
        </mxCell>
        <mxCell id="4wo9BDWE1BoHJSRFEesV-55" value="Виртуальная&amp;nbsp;&lt;div&gt;карта&lt;/div&gt;" style="edgeLabel;html=1;align=center;verticalAlign=middle;resizable=0;points=[];" vertex="1" connectable="0" parent="4wo9BDWE1BoHJSRFEesV-54">
          <mxGeometry x="-0.8456" y="2" relative="1" as="geometry">
            <mxPoint x="27" y="-18" as="offset" />
          </mxGeometry>
        </mxCell>
        <mxCell id="4wo9BDWE1BoHJSRFEesV-43" value="" style="rhombus;whiteSpace=wrap;html=1;fontColor=#000000;fillColor=#ffffc0;strokeColor=#ff0000;" vertex="1" parent="4wo9BDWE1BoHJSRFEesV-2">
          <mxGeometry x="164.5" y="490" width="80" height="40" as="geometry" />
        </mxCell>
        <mxCell id="4wo9BDWE1BoHJSRFEesV-48" value="" style="rhombus;whiteSpace=wrap;html=1;fontColor=#000000;fillColor=#ffffc0;strokeColor=#ff0000;" vertex="1" parent="4wo9BDWE1BoHJSRFEesV-2">
          <mxGeometry x="165" y="590" width="80" height="40" as="geometry" />
        </mxCell>
        <mxCell id="4wo9BDWE1BoHJSRFEesV-52" style="edgeStyle=orthogonalEdgeStyle;rounded=0;orthogonalLoop=1;jettySize=auto;html=1;exitX=0.5;exitY=1;exitDx=0;exitDy=0;entryX=0;entryY=0.5;entryDx=0;entryDy=0;" edge="1" parent="4wo9BDWE1BoHJSRFEesV-2" source="4wo9BDWE1BoHJSRFEesV-51" target="4wo9BDWE1BoHJSRFEesV-48">
          <mxGeometry relative="1" as="geometry" />
        </mxCell>
        <mxCell id="4wo9BDWE1BoHJSRFEesV-51" value="Выбрать место доставки" style="rounded=1;whiteSpace=wrap;html=1;arcSize=50;fontColor=#000000;fillColor=#ffffc0;strokeColor=#ff0000;fontSize=8;" vertex="1" parent="4wo9BDWE1BoHJSRFEesV-2">
          <mxGeometry x="12" y="550" width="120" height="40" as="geometry" />
        </mxCell>
        <mxCell id="4wo9BDWE1BoHJSRFEesV-20" value="Открыть раздел заказа карты" style="rounded=1;whiteSpace=wrap;html=1;arcSize=40;fontColor=#000000;fillColor=#ffffc0;strokeColor=#ff0000;fontSize=8;" vertex="1" parent="4wo9BDWE1BoHJSRFEesV-2">
          <mxGeometry x="143" y="230" width="120" height="40" as="geometry" />
        </mxCell>
        <mxCell id="4wo9BDWE1BoHJSRFEesV-38" style="edgeStyle=orthogonalEdgeStyle;rounded=0;orthogonalLoop=1;jettySize=auto;html=1;entryX=0.5;entryY=0;entryDx=0;entryDy=0;exitX=0.484;exitY=0.767;exitDx=0;exitDy=0;exitPerimeter=0;" edge="1" parent="4wo9BDWE1BoHJSRFEesV-2" source="4wo9BDWE1BoHJSRFEesV-31" target="4wo9BDWE1BoHJSRFEesV-20">
          <mxGeometry relative="1" as="geometry">
            <mxPoint x="202" y="210" as="sourcePoint" />
            <mxPoint x="183" y="215" as="targetPoint" />
          </mxGeometry>
        </mxCell>
        <mxCell id="4wo9BDWE1BoHJSRFEesV-57" value="" style="shape=line;html=1;strokeWidth=6;strokeColor=#ff0000;" vertex="1" parent="4wo9BDWE1BoHJSRFEesV-2">
          <mxGeometry x="142" y="660" width="125" height="10" as="geometry" />
        </mxCell>
        <mxCell id="4wo9BDWE1BoHJSRFEesV-58" style="edgeStyle=orthogonalEdgeStyle;rounded=0;orthogonalLoop=1;jettySize=auto;html=1;exitX=0.5;exitY=1;exitDx=0;exitDy=0;entryX=0.505;entryY=0.213;entryDx=0;entryDy=0;entryPerimeter=0;" edge="1" parent="4wo9BDWE1BoHJSRFEesV-2" source="4wo9BDWE1BoHJSRFEesV-48" target="4wo9BDWE1BoHJSRFEesV-57">
          <mxGeometry relative="1" as="geometry" />
        </mxCell>
        <mxCell id="4wo9BDWE1BoHJSRFEesV-63" style="edgeStyle=orthogonalEdgeStyle;rounded=0;orthogonalLoop=1;jettySize=auto;html=1;exitX=0.5;exitY=1;exitDx=0;exitDy=0;entryX=0.5;entryY=0;entryDx=0;entryDy=0;" edge="1" parent="4wo9BDWE1BoHJSRFEesV-2" source="4wo9BDWE1BoHJSRFEesV-59" target="4wo9BDWE1BoHJSRFEesV-62">
          <mxGeometry relative="1" as="geometry" />
        </mxCell>
        <mxCell id="4wo9BDWE1BoHJSRFEesV-59" value="Выбрать модель карты" style="rounded=1;whiteSpace=wrap;html=1;arcSize=50;fontColor=#000000;fillColor=#ffffc0;strokeColor=#ff0000;fontSize=8;" vertex="1" parent="4wo9BDWE1BoHJSRFEesV-2">
          <mxGeometry x="146" y="690" width="120" height="40" as="geometry" />
        </mxCell>
        <mxCell id="4wo9BDWE1BoHJSRFEesV-60" style="edgeStyle=orthogonalEdgeStyle;rounded=0;orthogonalLoop=1;jettySize=auto;html=1;exitX=0.5;exitY=0.76;exitDx=0;exitDy=0;entryX=0.5;entryY=0;entryDx=0;entryDy=0;exitPerimeter=0;" edge="1" parent="4wo9BDWE1BoHJSRFEesV-2" source="4wo9BDWE1BoHJSRFEesV-57" target="4wo9BDWE1BoHJSRFEesV-59">
          <mxGeometry relative="1" as="geometry">
            <mxPoint x="215" y="640" as="sourcePoint" />
            <mxPoint x="215" y="671" as="targetPoint" />
          </mxGeometry>
        </mxCell>
        <mxCell id="4wo9BDWE1BoHJSRFEesV-69" style="edgeStyle=orthogonalEdgeStyle;rounded=0;orthogonalLoop=1;jettySize=auto;html=1;exitX=0.5;exitY=1;exitDx=0;exitDy=0;entryX=0.5;entryY=0;entryDx=0;entryDy=0;" edge="1" parent="4wo9BDWE1BoHJSRFEesV-2" source="4wo9BDWE1BoHJSRFEesV-62" target="4wo9BDWE1BoHJSRFEesV-67">
          <mxGeometry relative="1" as="geometry" />
        </mxCell>
        <mxCell id="4wo9BDWE1BoHJSRFEesV-70" value="Да" style="edgeLabel;html=1;align=center;verticalAlign=middle;resizable=0;points=[];" vertex="1" connectable="0" parent="4wo9BDWE1BoHJSRFEesV-69">
          <mxGeometry x="-0.3776" relative="1" as="geometry">
            <mxPoint x="11" as="offset" />
          </mxGeometry>
        </mxCell>
        <mxCell id="4wo9BDWE1BoHJSRFEesV-62" value="Есть подходящая модель?" style="rhombus;whiteSpace=wrap;html=1;fontColor=#000000;fillColor=#ffffc0;strokeColor=#ff0000;fontSize=8;" vertex="1" parent="4wo9BDWE1BoHJSRFEesV-2">
          <mxGeometry x="161" y="750" width="84.5" height="40" as="geometry" />
        </mxCell>
        <mxCell id="4wo9BDWE1BoHJSRFEesV-64" style="edgeStyle=orthogonalEdgeStyle;rounded=0;orthogonalLoop=1;jettySize=auto;html=1;exitX=0;exitY=0.5;exitDx=0;exitDy=0;entryX=0.25;entryY=0.5;entryDx=0;entryDy=0;entryPerimeter=0;" edge="1" parent="4wo9BDWE1BoHJSRFEesV-2" source="4wo9BDWE1BoHJSRFEesV-62" target="4wo9BDWE1BoHJSRFEesV-57">
          <mxGeometry relative="1" as="geometry">
            <Array as="points">
              <mxPoint x="92" y="770" />
              <mxPoint x="92" y="640" />
              <mxPoint x="173" y="640" />
            </Array>
          </mxGeometry>
        </mxCell>
        <mxCell id="4wo9BDWE1BoHJSRFEesV-65" value="Нет" style="edgeLabel;html=1;align=center;verticalAlign=middle;resizable=0;points=[];" vertex="1" connectable="0" parent="4wo9BDWE1BoHJSRFEesV-64">
          <mxGeometry x="-0.8959" y="1" relative="1" as="geometry">
            <mxPoint x="-3" y="-11" as="offset" />
          </mxGeometry>
        </mxCell>
        <mxCell id="4wo9BDWE1BoHJSRFEesV-71" style="edgeStyle=orthogonalEdgeStyle;rounded=0;orthogonalLoop=1;jettySize=auto;html=1;exitX=0.5;exitY=1;exitDx=0;exitDy=0;entryX=0.5;entryY=0;entryDx=0;entryDy=0;" edge="1" parent="4wo9BDWE1BoHJSRFEesV-2" source="4wo9BDWE1BoHJSRFEesV-67" target="4wo9BDWE1BoHJSRFEesV-66">
          <mxGeometry relative="1" as="geometry" />
        </mxCell>
        <mxCell id="4wo9BDWE1BoHJSRFEesV-67" value="Подтвердить внесенные данные" style="rounded=1;whiteSpace=wrap;html=1;arcSize=50;fontColor=#000000;fillColor=#ffffc0;strokeColor=#ff0000;fontSize=8;" vertex="1" parent="4wo9BDWE1BoHJSRFEesV-2">
          <mxGeometry x="143" y="810" width="120" height="40" as="geometry" />
        </mxCell>
        <mxCell id="4wo9BDWE1BoHJSRFEesV-72" style="edgeStyle=orthogonalEdgeStyle;rounded=0;orthogonalLoop=1;jettySize=auto;html=1;exitX=0.5;exitY=1;exitDx=0;exitDy=0;entryX=0.5;entryY=0;entryDx=0;entryDy=0;" edge="1" parent="4wo9BDWE1BoHJSRFEesV-2" source="4wo9BDWE1BoHJSRFEesV-66" target="4wo9BDWE1BoHJSRFEesV-68">
          <mxGeometry relative="1" as="geometry" />
        </mxCell>
        <mxCell id="4wo9BDWE1BoHJSRFEesV-66" value="Оплатить карту" style="rounded=1;whiteSpace=wrap;html=1;arcSize=50;fontColor=#000000;fillColor=#ffffc0;strokeColor=#ff0000;fontSize=8;" vertex="1" parent="4wo9BDWE1BoHJSRFEesV-2">
          <mxGeometry x="143" y="870" width="120" height="40" as="geometry" />
        </mxCell>
        <mxCell id="4wo9BDWE1BoHJSRFEesV-68" value="" style="ellipse;html=1;shape=endState;fillColor=#000000;strokeColor=#ff0000;" vertex="1" parent="4wo9BDWE1BoHJSRFEesV-2">
          <mxGeometry x="191.88" y="940" width="22.75" height="20" as="geometry" />
        </mxCell>
        <mxCell id="4wo9BDWE1BoHJSRFEesV-73" value="Карта заказана" style="text;html=1;align=center;verticalAlign=middle;whiteSpace=wrap;rounded=0;" vertex="1" parent="4wo9BDWE1BoHJSRFEesV-2">
          <mxGeometry x="244.5" y="940" width="90" height="20" as="geometry" />
        </mxCell>
        <mxCell id="4wo9BDWE1BoHJSRFEesV-3" value="Приложение" style="swimlane;html=1;startSize=20;" vertex="1" parent="4wo9BDWE1BoHJSRFEesV-1">
          <mxGeometry x="410" y="20" width="230" height="980" as="geometry">
            <mxRectangle x="360" y="20" width="40" height="830" as="alternateBounds" />
          </mxGeometry>
        </mxCell>
        <mxCell id="4wo9BDWE1BoHJSRFEesV-28" style="edgeStyle=orthogonalEdgeStyle;rounded=0;orthogonalLoop=1;jettySize=auto;html=1;exitX=0.5;exitY=1;exitDx=0;exitDy=0;entryX=0.5;entryY=0;entryDx=0;entryDy=0;" edge="1" parent="4wo9BDWE1BoHJSRFEesV-3" source="4wo9BDWE1BoHJSRFEesV-23" target="4wo9BDWE1BoHJSRFEesV-25">
          <mxGeometry relative="1" as="geometry" />
        </mxCell>
        <mxCell id="4wo9BDWE1BoHJSRFEesV-23" value="Верифицировать пользователя" style="rounded=1;whiteSpace=wrap;html=1;arcSize=40;fontColor=#000000;fillColor=#ffffc0;strokeColor=#ff0000;fontSize=8;" vertex="1" parent="4wo9BDWE1BoHJSRFEesV-3">
          <mxGeometry x="55" y="310" width="120" height="40" as="geometry" />
        </mxCell>
        <mxCell id="4wo9BDWE1BoHJSRFEesV-25" value="Пользователь верифицирован?" style="rhombus;whiteSpace=wrap;html=1;fontColor=#000000;fillColor=#ffffc0;strokeColor=#ff0000;fontSize=8;rotation=0;" vertex="1" parent="4wo9BDWE1BoHJSRFEesV-3">
          <mxGeometry x="75" y="370" width="80" height="40" as="geometry" />
        </mxCell>
        <mxCell id="4wo9BDWE1BoHJSRFEesV-41" value="Нет" style="text;html=1;align=center;verticalAlign=middle;resizable=0;points=[];autosize=1;strokeColor=none;fillColor=none;" vertex="1" parent="4wo9BDWE1BoHJSRFEesV-3">
          <mxGeometry x="155" y="360" width="40" height="30" as="geometry" />
        </mxCell>
        <mxCell id="4wo9BDWE1BoHJSRFEesV-34" style="edgeStyle=orthogonalEdgeStyle;rounded=0;orthogonalLoop=1;jettySize=auto;html=1;exitX=1;exitY=0.5;exitDx=0;exitDy=0;entryX=0.75;entryY=0.5;entryDx=0;entryDy=0;entryPerimeter=0;" edge="1" parent="4wo9BDWE1BoHJSRFEesV-1" source="4wo9BDWE1BoHJSRFEesV-25" target="4wo9BDWE1BoHJSRFEesV-31">
          <mxGeometry relative="1" as="geometry">
            <Array as="points">
              <mxPoint x="612" y="410" />
              <mxPoint x="612" y="200" />
              <mxPoint x="236" y="200" />
            </Array>
          </mxGeometry>
        </mxCell>
        <mxCell id="4wo9BDWE1BoHJSRFEesV-40" style="edgeStyle=orthogonalEdgeStyle;rounded=0;orthogonalLoop=1;jettySize=auto;html=1;exitX=0;exitY=0.5;exitDx=0;exitDy=0;entryX=0.5;entryY=0;entryDx=0;entryDy=0;" edge="1" parent="4wo9BDWE1BoHJSRFEesV-1" source="4wo9BDWE1BoHJSRFEesV-25" target="4wo9BDWE1BoHJSRFEesV-39">
          <mxGeometry relative="1" as="geometry" />
        </mxCell>
        <mxCell id="4wo9BDWE1BoHJSRFEesV-42" value="Да" style="edgeLabel;html=1;align=center;verticalAlign=middle;resizable=0;points=[];" vertex="1" connectable="0" parent="4wo9BDWE1BoHJSRFEesV-40">
          <mxGeometry x="-0.8549" y="1" relative="1" as="geometry">
            <mxPoint x="3" y="-16" as="offset" />
          </mxGeometry>
        </mxCell>
        <mxCell id="4wo9BDWE1BoHJSRFEesV-24" style="edgeStyle=orthogonalEdgeStyle;rounded=0;orthogonalLoop=1;jettySize=auto;html=1;exitX=0.5;exitY=1;exitDx=0;exitDy=0;entryX=0.5;entryY=0;entryDx=0;entryDy=0;" edge="1" parent="4wo9BDWE1BoHJSRFEesV-1" source="4wo9BDWE1BoHJSRFEesV-20" target="4wo9BDWE1BoHJSRFEesV-23">
          <mxGeometry relative="1" as="geometry" />
        </mxCell>
        <mxCell id="4wo9BDWE1BoHJSRFEesV-6" value="&lt;span style=&quot;color: rgb(60, 64, 67); font-family: Roboto, Arial, sans-serif; font-size: 14px; letter-spacing: 0.2px; text-align: left;&quot;&gt;Я, как клиент банка, хочу иметь возможность заказать карту онлайн, чтобы начать ее использование до получения физического пластика и не посещать банк&lt;/span&gt;" style="text;html=1;align=center;verticalAlign=middle;whiteSpace=wrap;rounded=0;" vertex="1" parent="1">
          <mxGeometry x="250" y="30" width="390" height="80" as="geometry" />
        </mxCell>
      </root>
    </mxGraphModel>
  </diagram>
</mxfile>
